<svg width="291" height="93" viewBox="0 0 291 93" fill="none" xmlns="http://www.w3.org/2000/svg">
<path d="M28.08 25.8H37.68V84.648H74.064V93H28.08V25.8ZM80.28 25.8H89.88V93H80.28V25.8ZM150.127 93L135.631 72.36C133.839 72.488 132.431 72.552 131.407 72.552H114.799V93H105.199V25.8H131.407C140.111 25.8 146.959 27.88 151.951 32.04C156.943 36.2 159.439 41.928 159.439 49.224C159.439 54.408 158.159 58.824 155.599 62.472C153.039 66.12 149.391 68.776 144.655 70.44L160.591 93H150.127ZM131.119 64.392C137.199 64.392 141.839 63.08 145.039 60.456C148.239 57.832 149.839 54.088 149.839 49.224C149.839 44.36 148.239 40.648 145.039 38.088C141.839 35.464 137.199 34.152 131.119 34.152H114.799V64.392H131.119ZM170.149 25.8H179.749V93H170.149V25.8ZM216.956 63.144L204.668 75.624V93H195.068V25.8H204.668V63.336L241.148 25.8H252.092L223.388 56.04L253.916 93H242.684L216.956 63.144Z" fill="white"/>
<path d="M264 38L254 83" stroke="#5918DF" stroke-width="4"/>
<path d="M23.3819 47L5 62L23.3819 77" stroke="#5918DF" stroke-width="6"/>
<path d="M267 47L285.382 62L267 77" stroke="#5918DF" stroke-width="6"/>
</svg>
